<?xml version="1.0" encoding="utf-8"?>
<!-- Generator: Adobe Illustrator 21.1.0, SVG Export Plug-In . SVG Version: 6.00 Build 0)  -->
<svg version="1.1" id="Calque_1" xmlns="http://www.w3.org/2000/svg" xmlns:xlink="http://www.w3.org/1999/xlink" x="0px" y="0px"
	 viewBox="0 0 432 432" style="enable-background:new 0 0 432 432;" xml:space="preserve">
<style type="text/css">
	.st0{fill:#D2A895;}
	.st1{fill:#864F4D;}
	.st2{fill:#644F43;}
	.st3{fill:#292726;}
	.st4{fill:#10447B;}
	.st5{fill:#9B1914;}
	.st6{fill:#B1C369;}
	.st7{fill:#4D593A;}
	.st8{fill:#7E8D66;}
	.st9{fill:#A3BC70;}
	.st10{fill:#789835;}
	.st11{fill:#C19D63;}
	.st12{fill:#282727;}
	.st13{fill:#AE7461;}
	.st14{fill:#3C3C3B;}
	.st15{fill:#6C7D49;}
	.st16{fill:#343434;}
	.st17{fill:#FCD271;}
	.st18{fill:#935C8D;}
	.st19{fill:#E47B19;}
	.st20{fill:#939D3C;}
	.st21{fill:#A2C1DB;}
	.st22{fill:#D86E63;}
	.st23{fill:#43484C;}
	.st24{fill:#007D97;}
	.st25{fill:#A08155;}
	.st26{fill:#E3635C;}
	.st27{fill:#C85581;}
	.st28{fill:#B33233;}
	.st29{fill:#F7A815;}
	.st30{fill:#ED7E87;}
	.st31{fill:#961639;}
	.st32{fill:#E7E6E6;}
	.st33{fill:#DAB575;}
	.st34{fill:#FAD4E2;}
	.st35{fill:#EE7089;}
	.st36{fill:#2A2A2C;}
	.st37{fill:#A98F64;}
	.st38{fill:#E0B05B;}
	.st39{fill:#37622C;}
	.st40{fill:#5B8151;}
	.st41{fill:#E9D3B4;}
	.st42{fill:#332313;}
	.st43{fill:#222751;}
	.st44{fill:#BCBDBF;}
	.st45{fill:#7FBD5C;}
	.st46{fill:#0F8E82;}
	.st47{fill:#F9B03D;}
	.st48{fill:#F2F2F2;}
	.st49{fill:#647D48;}
	.st50{fill:#D4AB7A;}
	.st51{fill:#E8C8A8;}
	.st52{fill:#EFC0C9;}
	.st53{fill:#070708;}
	.st54{fill:#835E42;}
	.st55{fill:#B58A6A;}
	.st56{fill:#100B0B;}
	.st57{fill:#FFFFFF;}
	.st58{fill:#C9B38C;}
	.st59{fill:#CDCCCC;}
	.st60{fill:#D6929D;}
	.st61{fill:#784831;}
	.st62{fill:#3F6E2C;}
	.st63{fill:#F7B663;}
	.st64{fill:#D98694;}
	.st65{fill:#1B1B1B;}
	.st66{fill:#C1292E;}
	.st67{fill:#C6AC96;}
	.st68{fill:#EA86AB;}
	.st69{fill:#C17291;}
	.st70{fill:#95355A;}
	.st71{fill:#7D98AB;}
	.st72{fill:#56A3DA;}
	.st73{fill:#B4B4B4;}
	.st74{fill:#C68D12;}
	.st75{fill:#658762;}
	.st76{fill:#9B5A60;}
	.st77{fill:#020203;}
	.st78{fill:#738C81;}
	.st79{fill:#33473E;}
</style>
<g>
	<g>
		<path class="st50" d="M379.1,189.5c5.7-2.1,5.4-20.8-2.1-28.5c0.7,8.3-12.3,6.7-17.1,10.4c-16.9-9-38.2-9.3-55.3-0.9
			c-3.6-2.8-8-2.3-12-3.9c-2.7-1.1-5.2-3.6-5-6.5c-5.5,5.6-6.9,14.3-5.8,22.1c0.3,2.2,1.1,4.6,2.9,5.6c-2.6,4.1-4.5,8.4-5.5,12.7
			c-9.1,38.7,32,45.7,26.6,51.4c-7.2,7.6-28.7-1.6-51.9,6.5c-2.7-5.4-2.2-18.9-7.9-33.7c-10.4-26.8-37.9-32-49-20.6
			c-5.6,5.7-5.6,14.9,0.7,20c3.3,2.7,8.2,1.9,12.4,1.2c28.9-4.6,25.3,17.9,36.1,37.4c-3.2,3.9-5.6,10.9-6.9,18.8
			c-0.6,3.2-4.8,38.1,4.7,38.1c7.7,0,5.7-4,6.9-7.8c1.1-3.6,2-6.9,5.3-6.8c53.3,2.9,48.6-2,48.8,1.8c0.5,7.6,0.6,13,7.2,13
			c4.6,0,4.8-2.2,5.4-8.6c0.5-5.2-0.5-7,6.7-6.6c2.7,0.1,1.5,5.3,1.5,9.1c0,5,1.1,6.1,4.9,6.1c4.5,0,5.3-0.6,6-2.9
			c4.2-12.6-1.1-56.2,2.1-62.1c3-5.7,44.4-5.3,45.7-44.7C384.7,203.2,382.9,196,379.1,189.5z"/>
		<path class="st51" d="M303.6,300.8c-2.8-3.8-8.3-3.9-12.9-3.3c-1.5,0.2-3,0.4-4.3,1c-0.5,0.2-1,0.5-1.6,0.5
			c-0.5-0.1-1-0.4-1.4-0.8c-4.8-3.9-11.4-4.1-17.6-4.1c1.2,0.7,2.2,1.8,2.8,3.1c-1.4-0.5-13.2-4.1-16.4,10.8
			c0.8-1.7,1.9-2.9,3.9-2.8c42,2.3,48-0.3,48.8,0.4C305,303.9,304.6,302.2,303.6,300.8z"/>
		<g>
			<path class="st51" d="M315.3,170.7c2.4,0.1,4.8,0.5,6.8,1.8c2,1.3,3.3,3.9,2.6,6.1c-0.3,1-1.1,1.9-2.2,2c-1,0.1-2.1-1-1.7-2
				c-1.2,0.5-1.7,2-1.3,3.2c0.4,1.2,1.4,2.1,2.5,2.6c1.1,0.6,2.3,0.9,3.5,1.3c2,0.8,3.9,2,5.1,3.8c1.4,2.1,1.8,4.6,2.1,7.1
				c0.4,3.6,0.4,7.2,0.2,10.8c0.5-2.6,1.1-5.3,1.9-7.9c1.1-4.2,2.9-8.7,6.8-10.5c1.5-0.7,3.2-0.9,4.6-1.8c0.9-0.6,1.6-1.4,2-2.4
				c0.6-1.3,0.5-2.9-0.3-4.1c-0.8-1.2-2.6-1.7-3.8-0.9c1.3,0.6,1.2,2.7,0,3.4c-1.2,0.7-2.8,0.2-3.7-0.9c-0.8-1.1-1-2.6-0.9-4
				c0.1-1.4,0.7-3,2-3.6c0.8-0.4,1.8-0.2,2.7-0.1c1.5,0.2,3.1,0.5,4.6,0.7c1,0.2,2.1,0.3,3.1,0.1c1-0.2,2-0.8,2.5-1.7
				c0.5-1.2-0.1-2.7-1.1-3.5c-1-0.8-2.4-1.1-3.7-1.2c0.8,0.6,0.6,2-0.2,2.5c-0.9,0.5-2,0.2-2.6-0.6c-0.6-0.8-0.6-1.9-0.3-2.8
				c0.2-0.5,0.4-1,0.8-1.3c0.1-0.1,0.2-0.1,0.2-0.2c-13.4-3.6-28.1-2.6-40.7,3c0.5,0.2,1,0.4,1.5,0.5
				C310.6,170.6,312.9,170.5,315.3,170.7z"/>
			<g>
				<g>
					<path class="st52" d="M288.9,168.5c-0.8-0.2-1.7-0.2-2.3,0.4c-0.4,0.4-0.4,0.9-0.5,1.5c-0.5,3.7-0.7,7.5-0.8,11.2
						c0,0.3,0,0.7,0.3,0.9c0.3,0.2,0.7-0.1,1-0.3c1.1-1,2-2.2,2.8-3.4c0.3-0.6,0.7-1.2,1.2-1.5c0.3-0.2,0.8-0.3,1.1-0.4
						C303,172.8,297.2,170.5,288.9,168.5z"/>
				</g>
				<g>
					<path class="st52" d="M374.8,170.6c0.8-0.1,1.7-0.1,2.2,0.5c0.3,0.4,0.4,1,0.4,1.5c0.2,3.8,0.1,7.5-0.2,11.3
						c0,0.3-0.1,0.7-0.4,0.9c-0.3,0.2-0.7-0.1-1-0.4c-1-1.1-1.8-2.3-2.5-3.7c-0.3-0.6-0.5-1.2-1.1-1.6c-0.3-0.2-0.7-0.3-1.1-0.5
						C360.5,173.7,366.4,172,374.8,170.6z"/>
				</g>
			</g>
		</g>
		<g>
			<g>
				<path class="st53" d="M358.4,212.6c-1.8-0.8-6.2-2.4-9.3-0.8c-1.1,0.6-0.5,2,0.6,1.7c2.7-0.7,5.4-0.4,7.9,0.7
					C358.7,214.8,359.5,213.1,358.4,212.6z"/>
				<path class="st53" d="M312.7,209.4c-3.1-1.6-7.5,0-9.3,0.8c-1.1,0.5-0.3,2.1,0.8,1.7c2.5-1.1,5.2-1.3,7.9-0.7
					C313.3,211.5,313.8,210,312.7,209.4z"/>
			</g>
			<g>
				<g>
					<path class="st53" d="M366.8,223.3c9.2,0.2,18.4,0.4,27.6,0.7c1.1,0,1.1-1.8,0-1.8c-9.2-0.2-18.4-0.4-27.6-0.7
						C365.7,221.5,365.7,223.3,366.8,223.3L366.8,223.3z"/>
				</g>
				<g>
					<path class="st53" d="M367.3,227.7c7.2,1.4,14.4,2.9,21.7,4.3c1.1,0.2,1.6-1.5,0.5-1.7c-7.2-1.4-14.4-2.9-21.7-4.3
						C366.7,225.7,366.2,227.4,367.3,227.7L367.3,227.7z"/>
				</g>
				<g>
					<path class="st53" d="M366.3,231c4.5,3.2,9.3,5.8,14.4,7.9c1.1,0.4,1.5-1.3,0.5-1.7c-5-2-9.6-4.6-14-7.7
						C366.2,228.8,365.3,230.3,366.3,231L366.3,231z"/>
				</g>
			</g>
			<g>
				<g>
					<path class="st53" d="M292.4,221.6c-9.2,0.2-18.4,0.4-27.6,0.7c-1.1,0-1.1-1.8,0-1.8c9.2-0.2,18.4-0.4,27.6-0.7
						C293.5,219.8,293.5,221.6,292.4,221.6L292.4,221.6z"/>
				</g>
				<g>
					<path class="st53" d="M291.9,225.9c-7.2,1.4-14.4,2.9-21.7,4.3c-1.1,0.2-1.6-1.5-0.5-1.7c7.2-1.4,14.4-2.9,21.7-4.3
						C292.5,223.9,293,225.7,291.9,225.9L291.9,225.9z"/>
				</g>
				<g>
					<path class="st53" d="M292.9,229.2c-4.5,3.2-9.3,5.8-14.4,7.9c-1.1,0.4-1.5-1.3-0.5-1.7c5-2,9.6-4.6,14-7.7
						C293,227,293.9,228.5,292.9,229.2L292.9,229.2z"/>
				</g>
			</g>
			<path class="st53" d="M336.4,220.1c-2.2-0.4-4.2,0.4-5.7,2c-3.1-4.6-7.6-3.4-7.8-1.3c-0.2,2.4,4,4.8,6.2,6.4
				c0.2,0.2,0.5,0.3,0.7,0.4c0,1.9-0.1,4.2-0.1,7.6c0,1.1,1.8,1.1,1.8,0c0.1-3.5,0.1-5.8,0.1-7.8c1.1-0.5,2.5-1.7,4.8-3.2
				C339.4,222.4,337.7,220.4,336.4,220.1z"/>
		</g>
	</g>
	<g>
		<path class="st54" d="M224.8,130.5c-2-16.1-27.3-28.9-52.3-13.6c-10.9,6.6-18.1,15-23.3,19.6c-4.5-1.5-9.8-2.4-15.8-2.7
			c-0.9-1.5-1.3-3.2-1.9-4.9c-0.6-1.9-1.8-5-4-5.3c0.1,2.8,0.4,5.6,0.1,8.4c-2.1-2.3-4.9-3.8-8-4.3c1.3,2,2.6,4.1,3.9,6.1
			c-7.2,0.5-13.1,1.8-18.1,3.9c-2.9-6.2-6.6-15-13.1-23.5C74.4,91,46.1,93.8,38.4,108.1c-3.8,7.1-1.2,16.2,6.4,19.3
			c4,1.7,8.5-0.5,12.4-2.4c22.7-10.7,28.3,3.9,39.1,18.3c-11.6,10.3-13.7,28-13,49.2c0.1,2.6,0.2,5,0.2,7.3
			c-4.5,4.3-7.3,10.6-7.3,19.7c0,20.9,7,30.4,17.8,34.8c-0.2,2-0.3,4.1-0.3,6.3c-2.9-1.3-6-2.6-7.2-3.1c-8.4-3-11.4-4-14.2,1.8
			c-3.6,7.8,0,11,21.9,21.3c0.4,12.8,0.9,22,3.5,41.7c1.3,10,4.2,12.4,11,12.4c16.5,0-0.6-21.9,20.2-21.9c20.7,0,3.7,21.9,20.2,21.9
			c6.8,0,9.7-2.4,11-12.4c2.5-19.9,3.4-28.9,4.1-41.7c22-10.3,25.7-13.5,22.1-21.4c-2.7-5.9-5.7-4.9-14.2-1.8
			c-1.2,0.4-4.3,1.8-7.2,3.1c0-2.2-0.2-4.3-0.4-6.4c10.8-4.7,17.8-14.5,17.8-34.7c0-9.2-2.7-15.4-7.3-19.7c0.1-2.3,0.2-4.7,0.3-7.3
			c0.8-22.6-2.2-41.1-16-51c14.5-9.3,24.9-19.6,41.6-2.1c3,3.2,6.4,6.8,10.8,6.7C220,146,225.7,138.5,224.8,130.5z"/>
		<path class="st55" d="M76.4,219.6c0,38.8,24.3,38.4,51.7,38.8c28.3,0.4,54.4,0,54.4-38.8c0-29.1-27.6-29.1-53-29.1
			C104,190.5,76.4,190.5,76.4,219.6z"/>
		<path class="st56" d="M111,193.7c-0.9,9.9,8.4,26.1,17.9,26.3c9.8,0.2,19.8-16.1,18.9-26.3c-0.8-8.7-9.6-7.2-18.4-7.2
			C120.6,186.6,111.8,185.1,111,193.7z"/>
		<g>
			<path class="st57" d="M109.3,160.3c-4.3,0-7.8,2.5-7.8,12.3c0,9.4,3.5,12.3,7.8,12.3c4.3,0,7.8-2.5,7.8-12.3
				C117.1,161.9,113.6,160.3,109.3,160.3z"/>
			<path class="st56" d="M109.3,170.5c-2.2,0-3.9,1.3-3.9,6.2c0,4.7,1.7,6.2,3.9,6.2c2.2,0,3.9-1.3,3.9-6.2
				C113.2,171.3,111.4,170.5,109.3,170.5z"/>
		</g>
		<g>
			<path class="st57" d="M148.6,160.3c4.3,0,7.8,2.5,7.8,12.3c0,9.4-3.5,12.3-7.8,12.3c-4.3,0-7.8-2.5-7.8-12.3
				C140.8,161.9,144.3,160.3,148.6,160.3z"/>
			<path class="st56" d="M148.6,170.5c2.2,0,3.9,1.3,3.9,6.2c0,4.7-1.7,6.2-3.9,6.2c-2.2,0-3.9-1.3-3.9-6.2
				C144.7,171.3,146.5,170.5,148.6,170.5z"/>
		</g>
		<path class="st56" d="M160.8,234.6c-1.3-0.6-2.5-1.3-3.6-2.1c-0.2-0.3-1.3-0.8-3-2.9c-0.9-1.1-2.4,0.5-1.5,1.5
			c0.6,0.8,1.3,1.5,2,2.1c-6.4,8-15.8,12-25.2,12c-9.4,0-18.8-4-25.2-12c0.7-0.6,1.4-1.4,2-2.1c0.9-1.1-0.7-2.6-1.5-1.5
			c-1.7,2.1-2.7,2.6-3,2.9c-1.1,0.8-2.3,1.5-3.6,2.1c-1.3,0.6-0.2,2.4,1.1,1.9c1.2-0.5,2.3-1.1,3.3-1.9c7.1,8.7,17.1,12.7,26.9,12.7
			c9.9,0.1,19.8-4,26.9-12.7c1,0.7,2.2,1.4,3.3,1.9C160.9,237,162,235.2,160.8,234.6z"/>
		<path class="st55" d="M113.6,292c0,11.6,7.7,14.2,15.8,14.3c8.4,0.1,15.8-2.7,15.8-14.3c0-8.7-8.2-11.8-15.8-11.8
			C121.8,280.2,113.6,283.3,113.6,292z"/>
	</g>
</g>
</svg>
