<svg id="visual" viewBox="0 0 900 600" width="900" height="600" xmlns="http://www.w3.org/2000/svg" xmlns:xlink="http://www.w3.org/1999/xlink" version="1.1"><rect x="0" y="0" width="900" height="600" fill="#072135"></rect><path d="M0 385L21.5 384.8C43 384.7 86 384.3 128.8 378.8C171.7 373.3 214.3 362.7 257.2 367.8C300 373 343 394 385.8 401.3C428.7 408.7 471.3 402.3 514.2 407.3C557 412.3 600 428.7 642.8 419.8C685.7 411 728.3 377 771.2 368.8C814 360.7 857 378.3 878.5 387.2L900 396L900 601L878.5 601C857 601 814 601 771.2 601C728.3 601 685.7 601 642.8 601C600 601 557 601 514.2 601C471.3 601 428.7 601 385.8 601C343 601 300 601 257.2 601C214.3 601 171.7 601 128.8 601C86 601 43 601 21.5 601L0 601Z" fill="#c62368"></path><path d="M0 372L21.5 382.3C43 392.7 86 413.3 128.8 426.5C171.7 439.7 214.3 445.3 257.2 444.7C300 444 343 437 385.8 439.5C428.7 442 471.3 454 514.2 451C557 448 600 430 642.8 419.3C685.7 408.7 728.3 405.3 771.2 404.7C814 404 857 406 878.5 407L900 408L900 601L878.5 601C857 601 814 601 771.2 601C728.3 601 685.7 601 642.8 601C600 601 557 601 514.2 601C471.3 601 428.7 601 385.8 601C343 601 300 601 257.2 601C214.3 601 171.7 601 128.8 601C86 601 43 601 21.5 601L0 601Z" fill="#d23766"></path><path d="M0 409L21.5 416C43 423 86 437 128.8 437.7C171.7 438.3 214.3 425.7 257.2 426.2C300 426.7 343 440.3 385.8 448.2C428.7 456 471.3 458 514.2 457.7C557 457.3 600 454.7 642.8 456.8C685.7 459 728.3 466 771.2 459.8C814 453.7 857 434.3 878.5 424.7L900 415L900 601L878.5 601C857 601 814 601 771.2 601C728.3 601 685.7 601 642.8 601C600 601 557 601 514.2 601C471.3 601 428.7 601 385.8 601C343 601 300 601 257.2 601C214.3 601 171.7 601 128.8 601C86 601 43 601 21.5 601L0 601Z" fill="#dc4965"></path><path d="M0 451L21.5 454.8C43 458.7 86 466.3 128.8 468.2C171.7 470 214.3 466 257.2 470.3C300 474.7 343 487.3 385.8 486.5C428.7 485.7 471.3 471.3 514.2 463.2C557 455 600 453 642.8 458.7C685.7 464.3 728.3 477.7 771.2 486.2C814 494.7 857 498.3 878.5 500.2L900 502L900 601L878.5 601C857 601 814 601 771.2 601C728.3 601 685.7 601 642.8 601C600 601 557 601 514.2 601C471.3 601 428.7 601 385.8 601C343 601 300 601 257.2 601C214.3 601 171.7 601 128.8 601C86 601 43 601 21.5 601L0 601Z" fill="#e55a64"></path><path d="M0 478L21.5 478.5C43 479 86 480 128.8 485C171.7 490 214.3 499 257.2 502.3C300 505.7 343 503.3 385.8 505.7C428.7 508 471.3 515 514.2 514.3C557 513.7 600 505.3 642.8 498C685.7 490.7 728.3 484.3 771.2 490.8C814 497.3 857 516.7 878.5 526.3L900 536L900 601L878.5 601C857 601 814 601 771.2 601C728.3 601 685.7 601 642.8 601C600 601 557 601 514.2 601C471.3 601 428.7 601 385.8 601C343 601 300 601 257.2 601C214.3 601 171.7 601 128.8 601C86 601 43 601 21.5 601L0 601Z" fill="#ed6b64"></path><path d="M0 542L21.5 540.8C43 539.7 86 537.3 128.8 532.2C171.7 527 214.3 519 257.2 520.5C300 522 343 533 385.8 537.8C428.7 542.7 471.3 541.3 514.2 536.2C557 531 600 522 642.8 517C685.7 512 728.3 511 771.2 511.7C814 512.3 857 514.7 878.5 515.8L900 517L900 601L878.5 601C857 601 814 601 771.2 601C728.3 601 685.7 601 642.8 601C600 601 557 601 514.2 601C471.3 601 428.7 601 385.8 601C343 601 300 601 257.2 601C214.3 601 171.7 601 128.8 601C86 601 43 601 21.5 601L0 601Z" fill="#f47c66"></path><path d="M0 578L21.5 574.7C43 571.3 86 564.7 128.8 562.3C171.7 560 214.3 562 257.2 562C300 562 343 560 385.8 562.7C428.7 565.3 471.3 572.7 514.2 570.8C557 569 600 558 642.8 555.5C685.7 553 728.3 559 771.2 563.3C814 567.7 857 570.3 878.5 571.7L900 573L900 601L878.5 601C857 601 814 601 771.2 601C728.3 601 685.7 601 642.8 601C600 601 557 601 514.2 601C471.3 601 428.7 601 385.8 601C343 601 300 601 257.2 601C214.3 601 171.7 601 128.8 601C86 601 43 601 21.5 601L0 601Z" fill="#fa8c69"></path></svg>