<svg id="visual" viewBox="0 0 900 600" width="900" height="600" xmlns="http://www.w3.org/2000/svg" xmlns:xlink="http://www.w3.org/1999/xlink" version="1.1"><rect x="0" y="0" width="900" height="600" fill="#072135"></rect><path d="M0 356L21.5 363C43 370 86 384 128.8 388.2C171.7 392.3 214.3 386.7 257.2 390.2C300 393.7 343 406.3 385.8 416.8C428.7 427.3 471.3 435.7 514.2 432.2C557 428.7 600 413.3 642.8 403.5C685.7 393.7 728.3 389.3 771.2 393.3C814 397.3 857 409.7 878.5 415.8L900 422L900 601L878.5 601C857 601 814 601 771.2 601C728.3 601 685.7 601 642.8 601C600 601 557 601 514.2 601C471.3 601 428.7 601 385.8 601C343 601 300 601 257.2 601C214.3 601 171.7 601 128.8 601C86 601 43 601 21.5 601L0 601Z" fill="#c62368"></path><path d="M0 410L21.5 416.7C43 423.3 86 436.7 128.8 445.2C171.7 453.7 214.3 457.3 257.2 450C300 442.7 343 424.3 385.8 411.8C428.7 399.3 471.3 392.7 514.2 396.5C557 400.3 600 414.7 642.8 417.5C685.7 420.3 728.3 411.7 771.2 409.3C814 407 857 411 878.5 413L900 415L900 601L878.5 601C857 601 814 601 771.2 601C728.3 601 685.7 601 642.8 601C600 601 557 601 514.2 601C471.3 601 428.7 601 385.8 601C343 601 300 601 257.2 601C214.3 601 171.7 601 128.8 601C86 601 43 601 21.5 601L0 601Z" fill="#d23766"></path><path d="M0 458L21.5 456.5C43 455 86 452 128.8 451.2C171.7 450.3 214.3 451.7 257.2 456.2C300 460.7 343 468.3 385.8 463.5C428.7 458.7 471.3 441.3 514.2 443.8C557 446.3 600 468.7 642.8 470.2C685.7 471.7 728.3 452.3 771.2 439.2C814 426 857 419 878.5 415.5L900 412L900 601L878.5 601C857 601 814 601 771.2 601C728.3 601 685.7 601 642.8 601C600 601 557 601 514.2 601C471.3 601 428.7 601 385.8 601C343 601 300 601 257.2 601C214.3 601 171.7 601 128.8 601C86 601 43 601 21.5 601L0 601Z" fill="#dc4965"></path><path d="M0 484L21.5 476.8C43 469.7 86 455.3 128.8 452C171.7 448.7 214.3 456.3 257.2 455.8C300 455.3 343 446.7 385.8 453.2C428.7 459.7 471.3 481.3 514.2 489.2C557 497 600 491 642.8 482.8C685.7 474.7 728.3 464.3 771.2 466.3C814 468.3 857 482.7 878.5 489.8L900 497L900 601L878.5 601C857 601 814 601 771.2 601C728.3 601 685.7 601 642.8 601C600 601 557 601 514.2 601C471.3 601 428.7 601 385.8 601C343 601 300 601 257.2 601C214.3 601 171.7 601 128.8 601C86 601 43 601 21.5 601L0 601Z" fill="#e55a64"></path><path d="M0 513L21.5 511.2C43 509.3 86 505.7 128.8 506C171.7 506.3 214.3 510.7 257.2 506C300 501.3 343 487.7 385.8 483.2C428.7 478.7 471.3 483.3 514.2 488.2C557 493 600 498 642.8 499.8C685.7 501.7 728.3 500.3 771.2 499.7C814 499 857 499 878.5 499L900 499L900 601L878.5 601C857 601 814 601 771.2 601C728.3 601 685.7 601 642.8 601C600 601 557 601 514.2 601C471.3 601 428.7 601 385.8 601C343 601 300 601 257.2 601C214.3 601 171.7 601 128.8 601C86 601 43 601 21.5 601L0 601Z" fill="#ed6b64"></path><path d="M0 511L21.5 510.8C43 510.7 86 510.3 128.8 509.3C171.7 508.3 214.3 506.7 257.2 512.8C300 519 343 533 385.8 540.5C428.7 548 471.3 549 514.2 542.3C557 535.7 600 521.3 642.8 514.5C685.7 507.7 728.3 508.3 771.2 512C814 515.7 857 522.3 878.5 525.7L900 529L900 601L878.5 601C857 601 814 601 771.2 601C728.3 601 685.7 601 642.8 601C600 601 557 601 514.2 601C471.3 601 428.7 601 385.8 601C343 601 300 601 257.2 601C214.3 601 171.7 601 128.8 601C86 601 43 601 21.5 601L0 601Z" fill="#f47c66"></path><path d="M0 557L21.5 561C43 565 86 573 128.8 570.2C171.7 567.3 214.3 553.7 257.2 549.3C300 545 343 550 385.8 554.5C428.7 559 471.3 563 514.2 566.7C557 570.3 600 573.7 642.8 570.2C685.7 566.7 728.3 556.3 771.2 553.8C814 551.3 857 556.7 878.5 559.3L900 562L900 601L878.5 601C857 601 814 601 771.2 601C728.3 601 685.7 601 642.8 601C600 601 557 601 514.2 601C471.3 601 428.7 601 385.8 601C343 601 300 601 257.2 601C214.3 601 171.7 601 128.8 601C86 601 43 601 21.5 601L0 601Z" fill="#fa8c69"></path></svg>