<svg id="visual" viewBox="0 0 1440 1140" width="1440" height="1140" xmlns="http://www.w3.org/2000/svg" xmlns:xlink="http://www.w3.org/1999/xlink" version="1.1"><rect x="0" y="0" width="1440" height="1140" fill="#002233"></rect><path d="M0 766L40 791.2C80 816.3 160 866.7 240 864.5C320 862.3 400 807.7 480 796C560 784.3 640 815.7 720 812.5C800 809.3 880 771.7 960 748.7C1040 725.7 1120 717.3 1200 721.5C1280 725.7 1360 742.3 1400 750.7L1440 759L1440 1141L1400 1141C1360 1141 1280 1141 1200 1141C1120 1141 1040 1141 960 1141C880 1141 800 1141 720 1141C640 1141 560 1141 480 1141C400 1141 320 1141 240 1141C160 1141 80 1141 40 1141L0 1141Z" fill="#B86800" stroke-linecap="round" stroke-linejoin="miter"></path></svg>