<svg id="visual" viewBox="0 0 1500 1300" width="1500" height="1300" xmlns="http://www.w3.org/2000/svg" xmlns:xlink="http://www.w3.org/1999/xlink" version="1.1"><rect x="0" y="0" width="1500" height="1300" fill="#072135"></rect><path d="M0 1039L35.7 1049.2C71.3 1059.3 142.7 1079.7 214.2 1091.2C285.7 1102.7 357.3 1105.3 428.8 1095.5C500.3 1085.7 571.7 1063.3 643 1054.7C714.3 1046 785.7 1051 857 1058.7C928.3 1066.3 999.7 1076.7 1071.2 1095C1142.7 1113.3 1214.3 1139.7 1285.8 1127.8C1357.3 1116 1428.7 1066 1464.3 1041L1500 1016L1500 1301L1464.3 1301C1428.7 1301 1357.3 1301 1285.8 1301C1214.3 1301 1142.7 1301 1071.2 1301C999.7 1301 928.3 1301 857 1301C785.7 1301 714.3 1301 643 1301C571.7 1301 500.3 1301 428.8 1301C357.3 1301 285.7 1301 214.2 1301C142.7 1301 71.3 1301 35.7 1301L0 1301Z" fill="#008798" stroke-linecap="round" stroke-linejoin="miter"></path></svg>